<svg width="333" height="670" viewBox="0 0 333 670" fill="none" xmlns="http://www.w3.org/2000/svg">
<g id="phone" clip-path="url(#clip0_4_23)">
<path id="device" d="M333 158.921H329.326V58.26C329.326 42.8085 323.188 27.9898 312.262 17.064C301.336 6.13809 286.518 0 271.066 0H57.802C42.3505 0 27.5318 6.13809 16.606 17.064C5.68009 27.9898 -0.458008 42.8085 -0.458008 58.26V610.494C-0.458008 625.946 5.68009 640.764 16.606 651.69C27.5318 662.616 42.3505 668.754 57.802 668.754H271.066C286.518 668.754 301.336 662.616 312.262 651.69C323.188 640.764 329.326 625.946 329.326 610.494V610.494V230.573H333V158.921Z" fill="#3F3D56"/>
<path id="container" d="M273.417 15.157H245.578C246.858 18.2956 247.347 21.7009 247.001 25.0728C246.655 28.4447 245.485 31.6798 243.594 34.4931C241.703 37.3064 239.15 39.6116 236.158 41.2056C233.167 42.7997 229.83 43.6336 226.44 43.634H104.264C100.874 43.6335 97.5371 42.7995 94.5458 41.2054C91.5545 39.6113 89.0012 37.306 87.1107 34.4927C85.2201 31.6794 84.0505 28.4443 83.7047 25.0724C83.359 21.7006 83.8478 18.2955 85.128 15.157H59.128C47.589 15.157 36.5225 19.7409 28.3632 27.9002C20.2039 36.0595 15.62 47.126 15.62 58.665V610.091C15.6205 621.63 20.2046 632.696 28.3639 640.855C36.5232 649.013 47.5893 653.597 59.128 653.597H273.417C279.131 653.597 284.788 652.472 290.067 650.286C295.346 648.1 300.142 644.896 304.183 640.856C308.223 636.816 311.428 632.02 313.615 626.742C315.802 621.463 316.928 615.806 316.928 610.092V610.091V58.665C316.928 47.126 312.344 36.0595 304.185 27.9002C296.025 19.7409 284.959 15.157 273.42 15.157H273.417Z" fill="white"/>
<g id="box-3">
<path id="Path 667" d="M296.185 422.82H36.252C34.9756 422.819 33.7519 422.311 32.8494 421.409C31.9469 420.506 31.4393 419.282 31.438 418.006V298.654C31.4393 297.378 31.9469 296.154 32.8494 295.251C33.7519 294.349 34.9756 293.841 36.252 293.84H296.185C297.461 293.841 298.685 294.349 299.588 295.251C300.49 296.154 300.998 297.378 300.999 298.654V418.007C300.997 419.283 300.49 420.507 299.587 421.409C298.685 422.311 297.461 422.819 296.185 422.82ZM36.252 295.766C35.4863 295.767 34.7522 296.071 34.2107 296.613C33.6693 297.154 33.3648 297.888 33.364 298.654V418.007C33.3648 418.773 33.6693 419.507 34.2107 420.048C34.7522 420.59 35.4863 420.894 36.252 420.895H296.185C296.951 420.894 297.685 420.59 298.226 420.048C298.768 419.507 299.072 418.773 299.073 418.007V298.654C299.072 297.888 298.768 297.154 298.226 296.613C297.685 296.071 296.951 295.767 296.185 295.766H36.252Z" fill="#E6E6E6"/>
</g>
<g id="box-4-1">
<path id="Path 669" d="M151.778 578.779H36.252C34.9756 578.778 33.7519 578.27 32.8494 577.368C31.9469 576.465 31.4393 575.241 31.438 573.965V453.65C31.4396 452.374 31.9473 451.15 32.8498 450.248C33.7523 449.346 34.9758 448.838 36.252 448.837H151.778C153.054 448.838 154.278 449.346 155.18 450.248C156.083 451.15 156.59 452.374 156.592 453.65V573.966C156.591 575.242 156.083 576.466 155.181 577.369C154.278 578.271 153.054 578.779 151.778 578.78V578.779ZM36.252 450.762C35.4863 450.763 34.7522 451.067 34.2107 451.609C33.6693 452.15 33.3648 452.884 33.364 453.65V573.966C33.3648 574.732 33.6693 575.466 34.2107 576.007C34.7522 576.549 35.4863 576.853 36.252 576.854H151.778C152.544 576.853 153.278 576.549 153.819 576.007C154.361 575.466 154.665 574.732 154.666 573.966V453.65C154.665 452.884 154.361 452.15 153.819 451.609C153.278 451.067 152.544 450.763 151.778 450.762H36.252Z" fill="#E6E6E6"/>
<path id="Path 681" d="M60.869 492.903C60.0022 492.903 59.171 493.247 58.5581 493.86C57.9453 494.473 57.601 495.304 57.601 496.171C57.601 497.038 57.9453 497.869 58.5581 498.482C59.171 499.095 60.0022 499.439 60.869 499.439H127.162C128.029 499.439 128.86 499.095 129.473 498.482C130.086 497.869 130.43 497.038 130.43 496.171C130.43 495.304 130.086 494.473 129.473 493.86C128.86 493.247 128.029 492.903 127.162 492.903H60.869Z" fill="#E6E6E6"/>
<path id="Path 682" d="M94.016 550.967C89.9477 550.967 85.9707 549.761 82.588 547.5C79.2053 545.24 76.5688 542.028 75.0119 538.269C73.455 534.51 73.0476 530.375 73.8412 526.384C74.6348 522.394 76.5938 518.729 79.4705 515.852C82.3471 512.975 86.0122 511.016 90.0024 510.222C93.9925 509.429 98.1284 509.836 101.887 511.393C105.646 512.949 108.858 515.586 111.119 518.968C113.379 522.351 114.586 526.328 114.586 530.396V530.396C114.58 535.85 112.411 541.078 108.555 544.935C104.698 548.791 99.4697 550.961 94.016 550.967V550.967ZM94.016 511.751C90.3284 511.751 86.7235 512.845 83.6574 514.893C80.5912 516.942 78.2015 519.854 76.7903 523.261C75.3791 526.668 75.0098 530.417 75.7293 534.034C76.4487 537.65 78.2244 540.972 80.832 543.58C83.4395 546.188 86.7618 547.963 90.3786 548.683C93.9953 549.402 97.7442 549.033 101.151 547.622C104.558 546.211 107.47 543.821 109.519 540.755C111.567 537.688 112.661 534.084 112.661 530.396C112.655 525.453 110.688 520.715 107.193 517.22C103.698 513.725 98.9588 511.759 94.016 511.753V511.751Z" fill="#E6E6E6"/>
<path id="Path 680" d="M60.869 473.649C60.0022 473.649 59.171 473.993 58.5581 474.606C57.9453 475.219 57.601 476.05 57.601 476.917C57.601 477.784 57.9453 478.615 58.5581 479.228C59.171 479.841 60.0022 480.185 60.869 480.185H127.162C128.029 480.185 128.86 479.841 129.473 479.228C130.086 478.615 130.43 477.784 130.43 476.917C130.43 476.05 130.086 475.219 129.473 474.606C128.86 473.993 128.029 473.649 127.162 473.649H60.869Z" fill="#E6E6E6"/>
</g>
<g id="box-4-2">
<path id="Path 670" d="M294.256 578.779H178.734C177.458 578.778 176.234 578.27 175.331 577.368C174.429 576.465 173.921 575.241 173.92 573.965V453.65C173.922 452.374 174.429 451.15 175.332 450.248C176.234 449.346 177.458 448.838 178.734 448.837H294.256C295.532 448.838 296.756 449.346 297.659 450.248C298.561 451.151 299.069 452.375 299.07 453.651V573.966C299.069 575.242 298.561 576.466 297.659 577.369C296.756 578.271 295.532 578.779 294.256 578.78V578.779ZM178.734 450.762C177.968 450.763 177.234 451.067 176.693 451.609C176.151 452.15 175.847 452.884 175.846 453.65V573.966C175.847 574.732 176.151 575.466 176.693 576.007C177.234 576.549 177.968 576.853 178.734 576.854H294.256C295.022 576.853 295.756 576.549 296.297 576.007C296.839 575.466 297.143 574.732 297.144 573.966V453.65C297.143 452.884 296.839 452.15 296.297 451.609C295.756 451.067 295.022 450.763 294.256 450.762H178.734Z" fill="#E6E6E6"/>
<path id="Path 683" d="M269.647 553.969C270.076 553.969 270.501 553.885 270.898 553.72C271.294 553.556 271.654 553.315 271.958 553.012C272.261 552.708 272.502 552.348 272.666 551.952C272.83 551.555 272.915 551.13 272.915 550.701C272.915 550.272 272.83 549.847 272.666 549.45C272.502 549.054 272.261 548.694 271.958 548.39C271.654 548.087 271.294 547.846 270.898 547.682C270.501 547.518 270.076 547.433 269.647 547.433H203.347C202.48 547.433 201.649 547.777 201.036 548.39C200.423 549.003 200.079 549.834 200.079 550.701C200.079 551.568 200.423 552.399 201.036 553.012C201.649 553.625 202.48 553.969 203.347 553.969H269.647Z" fill="#E6E6E6"/>
<path id="Path 684" d="M269.647 534.713C270.076 534.713 270.501 534.628 270.898 534.464C271.294 534.3 271.654 534.059 271.958 533.756C272.261 533.452 272.502 533.092 272.666 532.696C272.83 532.299 272.915 531.874 272.915 531.445C272.915 531.016 272.83 530.591 272.666 530.194C272.502 529.798 272.261 529.438 271.958 529.134C271.654 528.831 271.294 528.59 270.898 528.426C270.501 528.262 270.076 528.177 269.647 528.177H203.347C202.48 528.177 201.649 528.521 201.036 529.134C200.423 529.747 200.079 530.578 200.079 531.445C200.079 532.312 200.423 533.143 201.036 533.756C201.649 534.369 202.48 534.713 203.347 534.713H269.647Z" fill="#E6E6E6"/>
<path id="Path 685" d="M236.497 473.649C240.565 473.649 244.542 474.855 247.925 477.116C251.308 479.376 253.944 482.589 255.501 486.347C257.058 490.106 257.465 494.242 256.672 498.232C255.878 502.222 253.919 505.887 251.042 508.764C248.165 511.641 244.5 513.6 240.51 514.394C236.52 515.187 232.384 514.78 228.625 513.223C224.867 511.666 221.654 509.03 219.394 505.647C217.133 502.264 215.927 498.287 215.927 494.219V494.219C215.933 488.765 218.103 483.537 221.959 479.681C225.815 475.825 231.043 473.655 236.497 473.649V473.649ZM236.497 512.864C240.184 512.863 243.789 511.769 246.855 509.72C249.921 507.671 252.31 504.759 253.721 501.352C255.131 497.945 255.5 494.196 254.78 490.58C254.061 486.963 252.285 483.641 249.677 481.034C247.069 478.427 243.747 476.651 240.13 475.932C236.514 475.213 232.765 475.582 229.358 476.994C225.951 478.405 223.04 480.795 220.991 483.861C218.942 486.927 217.849 490.531 217.849 494.219V494.219C217.855 499.162 219.821 503.901 223.316 507.397C226.812 510.892 231.551 512.858 236.494 512.864H236.497Z" fill="#E6E6E6"/>
</g>
<g id="box-2-2">
<path id="Path 678" d="M290.307 267.836H181.934L207.434 223.661C207.891 222.869 208.549 222.212 209.34 221.754C210.132 221.297 211.03 221.057 211.944 221.057C212.859 221.057 213.757 221.297 214.549 221.754C215.34 222.212 215.998 222.869 216.455 223.661L227.349 242.532L245.878 210.443C246.45 209.452 247.273 208.628 248.265 208.056C249.256 207.483 250.38 207.182 251.525 207.182C252.67 207.182 253.794 207.483 254.785 208.056C255.777 208.628 256.6 209.452 257.172 210.443L290.307 267.836ZM185.268 265.911H286.968L255.5 211.411C255.097 210.712 254.517 210.132 253.818 209.729C253.12 209.326 252.328 209.113 251.521 209.113C250.714 209.113 249.922 209.326 249.224 209.729C248.525 210.132 247.945 210.712 247.542 211.411L227.349 246.383L214.786 224.624C214.498 224.125 214.084 223.711 213.585 223.422C213.086 223.134 212.52 222.983 211.943 222.983C211.367 222.983 210.801 223.134 210.302 223.422C209.803 223.711 209.389 224.125 209.101 224.624L185.268 265.911Z" fill="#E6E6E6"/>
<path id="Path 668" d="M294.256 267.824H178.734C177.458 267.823 176.234 267.315 175.331 266.413C174.429 265.51 173.921 264.286 173.92 263.01V198.531C173.921 197.255 174.429 196.031 175.331 195.128C176.234 194.226 177.458 193.718 178.734 193.717H294.256C295.532 193.718 296.756 194.226 297.659 195.128C298.561 196.031 299.069 197.255 299.07 198.531V263.009C299.069 264.286 298.561 265.509 297.659 266.412C296.756 267.315 295.533 267.823 294.256 267.824V267.824ZM178.73 195.644C177.964 195.645 177.23 195.949 176.689 196.491C176.147 197.032 175.843 197.766 175.842 198.532V263.01C175.843 263.776 176.147 264.51 176.689 265.051C177.23 265.593 177.964 265.897 178.73 265.898H294.256C295.022 265.897 295.756 265.593 296.297 265.051C296.839 264.51 297.143 263.776 297.144 263.01V198.531C297.143 197.765 296.839 197.031 296.297 196.49C295.756 195.948 295.022 195.644 294.256 195.643L178.73 195.644Z" fill="#E6E6E6"/>
</g>
<g id="box-2-1">
<path id="Path 679" d="M151.778 267.824H36.252C34.9756 267.823 33.7519 267.315 32.8494 266.413C31.9469 265.51 31.4393 264.286 31.438 263.01V198.531C31.4393 197.255 31.9469 196.031 32.8494 195.128C33.7519 194.226 34.9756 193.718 36.252 193.717H151.778C153.054 193.718 154.278 194.226 155.181 195.128C156.083 196.031 156.591 197.255 156.592 198.531V263.009C156.591 264.285 156.083 265.509 155.181 266.412C154.278 267.314 153.054 267.822 151.778 267.823V267.824ZM36.252 195.644C35.4863 195.645 34.7522 195.949 34.2107 196.491C33.6693 197.032 33.3648 197.766 33.364 198.532V263.01C33.3648 263.776 33.6693 264.51 34.2107 265.051C34.7522 265.593 35.4863 265.897 36.252 265.898H151.778C152.544 265.897 153.278 265.593 153.819 265.051C154.361 264.51 154.665 263.776 154.666 263.01V198.531C154.665 197.765 154.361 197.031 153.819 196.49C153.278 195.948 152.544 195.644 151.778 195.643L36.252 195.644Z" fill="#E6E6E6"/>
<path id="Path 677" d="M151.676 267.836H43.303L68.803 223.661C69.26 222.869 69.9175 222.212 70.7093 221.754C71.5011 221.297 72.3992 221.057 73.3135 221.057C74.2278 221.057 75.1259 221.297 75.9177 221.754C76.7095 222.212 77.3669 222.869 77.824 223.661L88.719 242.532L107.247 210.443C107.819 209.452 108.642 208.628 109.634 208.056C110.625 207.483 111.749 207.182 112.894 207.182C114.039 207.182 115.163 207.483 116.154 208.056C117.146 208.628 117.969 209.452 118.541 210.443L151.676 267.836ZM46.637 265.911H148.337L116.869 211.411C116.466 210.712 115.886 210.132 115.187 209.729C114.489 209.326 113.697 209.113 112.89 209.113C112.083 209.113 111.291 209.326 110.593 209.729C109.894 210.132 109.314 210.712 108.911 211.411L88.722 246.383L76.159 224.624C75.871 224.125 75.4566 223.711 74.9577 223.422C74.4587 223.134 73.8927 222.983 73.3165 222.983C72.7403 222.983 72.1743 223.134 71.6753 223.422C71.1763 223.711 70.762 224.125 70.474 224.624L46.637 265.911Z" fill="#E6E6E6"/>
</g>
<g id="box-1">
<path id="box-1_2" d="M296.185 167.702H36.252C33.595 167.702 31.442 166.463 31.438 164.936V96.362C31.438 94.835 33.594 93.598 36.252 93.596H296.185C298.842 93.596 300.995 94.835 300.999 96.362V164.937C300.996 166.463 298.842 167.7 296.185 167.702ZM36.252 94.702C34.658 94.702 33.366 95.445 33.364 96.361V164.936C33.364 165.852 34.658 166.594 36.252 166.595H296.185C297.779 166.595 299.071 165.852 299.073 164.936V96.362C299.073 95.446 297.779 94.704 296.185 94.703L36.252 94.702Z" fill="#E6E6E6"/>
</g>
</g>
<defs>
<clipPath id="clip0_4_23">
<rect width="333" height="670" fill="white"/>
</clipPath>
</defs>
</svg>
